<?xml version="1.0" encoding="utf-8"?>
<!-- Generator: Adobe Illustrator 28.2.0, SVG Export Plug-In . SVG Version: 6.00 Build 0)  -->
<svg version="1.1" xmlns="http://www.w3.org/2000/svg" xmlns:xlink="http://www.w3.org/1999/xlink" x="0px" y="0px"
	 viewBox="0 0 108 108" style="enable-background:new 0 0 108 108;" xml:space="preserve">
<style type="text/css">
	.st0{display:none;}
	.st1{display:inline;}
	.st2{fill:#FFFFFF;}
</style>
<g id="图层_2" class="st0">
	<rect class="st1" width="108" height="108"/>
</g>
<g id="图层_1">
	<path class="st2" d="M70.01,61.42c-0.93,2.07-1.38,2.99-2.58,4.82c-1.68,2.55-4.04,5.73-6.96,5.75c-2.6,0.02-3.27-1.7-6.8-1.67
		c-3.53,0.02-4.26,1.7-6.87,1.67c-2.92-0.03-5.16-2.89-6.84-5.44c-4.69-7.14-5.18-15.51-2.29-19.96c2.05-3.16,5.29-5.01,8.34-5.01
		c3.1,0,5.05,1.7,7.61,1.7c2.49,0,4-1.71,7.59-1.71c2.71,0,5.58,1.48,7.63,4.03C62.15,49.29,63.24,58.86,70.01,61.42z M58.5,38.74
		c1.3-1.68,2.3-4.04,1.94-6.45c-2.13,0.15-4.62,1.5-6.07,3.26c-1.32,1.61-2.41,3.99-1.99,6.29C54.7,41.92,57.1,40.53,58.5,38.74z"/>
</g>
</svg>
