<?xml version="1.0" encoding="utf-8"?>
<!-- Generator: Adobe Illustrator 28.2.0, SVG Export Plug-In . SVG Version: 6.00 Build 0)  -->
<svg version="1.1" xmlns="http://www.w3.org/2000/svg" xmlns:xlink="http://www.w3.org/1999/xlink" x="0px" y="0px"
	 viewBox="0 0 108 108" style="enable-background:new 0 0 108 108;" xml:space="preserve">
<style type="text/css">
	.st0{display:none;}
	.st1{display:inline;}
	.st2{fill:#FFFFFF;}
</style>
<g id="图层_2" class="st0">
	<rect class="st1" width="108" height="108"/>
</g>
<g id="图层_1">
	<path class="st2" d="M70,40.88H38c-2.76,0-5,2.24-5,5v16.25c0,2.76,2.24,5,5,5h32c2.76,0,5-2.24,5-5V45.88
		C75,43.11,72.76,40.88,70,40.88z M47.03,58.33c1.67,0,2.99-0.92,3.28-2.3h2.84c-0.32,2.83-2.81,4.7-6.12,4.7
		c-3.94,0-6.59-2.47-6.59-6.73c0-4.25,2.65-6.72,6.59-6.72c3.37,0,5.76,1.87,6.12,4.68H50.3c-0.32-1.35-1.55-2.29-3.28-2.29
		c-2.25,0-3.69,1.44-3.69,4.32C43.34,56.91,44.78,58.33,47.03,58.33z M66.77,60.56h-3.17l-5.53-9.07h-0.13l0.07,3.8v5.28h-2.84
		V47.44h3.35l5.53,9.27h0.13l-0.11-4.2v-5.08h2.7V60.56z"/>
</g>
</svg>
