<?xml version="1.0" encoding="utf-8"?>
<!-- Generator: Adobe Illustrator 28.2.0, SVG Export Plug-In . SVG Version: 6.00 Build 0)  -->
<svg version="1.1" xmlns="http://www.w3.org/2000/svg" xmlns:xlink="http://www.w3.org/1999/xlink" x="0px" y="0px"
	 viewBox="0 0 108 108" style="enable-background:new 0 0 108 108;" xml:space="preserve">
<style type="text/css">
	.st0{display:none;}
	.st1{display:inline;}
	.st2{fill:#FFFFFF;}
</style>
<g id="图层_2" class="st0">
	<rect class="st1" width="108" height="108"/>
</g>
<g id="图层_1">
	<path class="st2" d="M70,40.88H38c-2.76,0-5,2.24-5,5v16.25c0,2.76,2.24,5,5,5h32c2.76,0,5-2.24,5-5V45.88
		C75,43.11,72.76,40.88,70,40.88z M52.26,60.48h-9.58V47.36h9.54v2.39h-6.73v2.94h5.85v2.25h-5.85v3.15h6.77V60.48z M65.45,55.49
		c0,3.24-2.18,5.15-5.62,5.15c-3.55,0-5.58-2.02-5.58-5.15v-8.14h2.79v8.12c0,1.78,1.04,2.68,2.81,2.68c1.84,0,2.81-0.99,2.81-2.68
		v-8.12h2.79V55.49z"/>
</g>
</svg>
