<?xml version="1.0" encoding="utf-8"?>
<!-- Generator: Adobe Illustrator 28.2.0, SVG Export Plug-In . SVG Version: 6.00 Build 0)  -->
<svg version="1.1" xmlns="http://www.w3.org/2000/svg" xmlns:xlink="http://www.w3.org/1999/xlink" x="0px" y="0px"
	 viewBox="0 0 108 108" style="enable-background:new 0 0 108 108;" xml:space="preserve">
<style type="text/css">
	.st0{display:none;}
	.st1{display:inline;}
	.st2{fill:#FFFFFF;}
</style>
<g id="图层_2" class="st0">
	<rect class="st1" width="108" height="108"/>
</g>
<g id="图层_1">
	<path class="st2" d="M70,40.88H38c-2.76,0-5,2.24-5,5v16.25c0,2.76,2.24,5,5,5h32c2.76,0,5-2.24,5-5V45.88
		C75,43.11,72.76,40.88,70,40.88z M53.35,60.56h-2.81v-5.46h-6.18v5.46h-2.81V47.44h2.81v5.28h6.18v-5.28h2.81V60.56z M64.33,60.56
		l-3.53-5.65l-1.82,2.03v3.62h-2.81V47.44h2.81v6.21l5.24-6.21h3.35l-4.84,5.46l4.92,7.67H64.33z"/>
</g>
</svg>
