<?xml version="1.0" encoding="utf-8"?>
<!-- Generator: Adobe Illustrator 28.2.0, SVG Export Plug-In . SVG Version: 6.00 Build 0)  -->
<svg version="1.1" xmlns="http://www.w3.org/2000/svg" xmlns:xlink="http://www.w3.org/1999/xlink" x="0px" y="0px"
	 viewBox="0 0 108 108" style="enable-background:new 0 0 108 108;" xml:space="preserve">
<style type="text/css">
	.st0{display:none;}
	.st1{display:inline;}
	.st2{fill:#FFFFFF;}
</style>
<g id="图层_2" class="st0">
	<rect class="st1" width="108" height="108"/>
</g>
<g id="图层_1">
	<g>
		<path class="st2" d="M70,40.88H38c-2.76,0-5,2.24-5,5v16.25c0,2.76,2.24,5,5,5h32c2.76,0,5-2.24,5-5V45.88
			C75,43.11,72.76,40.88,70,40.88z M50.34,56.75c0,2.75-1.6,3.87-4.07,3.87c-0.74,0-1.48-0.14-1.91-0.34v-2.25
			c0.34,0.18,0.77,0.29,1.31,0.29c1.28,0,1.87-0.56,1.87-1.78v-9.17h2.79V56.75z M58.8,56.03l-2.81-0.02v4.48h-2.81V47.37h5.62
			c2.84,0,4.7,1.57,4.7,4.3C63.5,54.27,61.77,56.03,58.8,56.03z"/>
		<path class="st2" d="M58.33,49.75h-2.34v4.09l2.34,0.02c1.24,0,2.32-0.5,2.32-2.07C60.65,50.24,59.57,49.75,58.33,49.75z"/>
	</g>
</g>
</svg>
