<?xml version="1.0" encoding="UTF-8"?><svg id="_图层_1" xmlns="http://www.w3.org/2000/svg" viewBox="0 0 108 108"><path d="M89.49,47.12c1.67-5.44,1.13-11.27-1.57-16.34-4.34-8.16-13.4-12.15-22.14-10.96-3.88-4.17-9.19-6.61-14.93-6.81-9.24-.32-17.22,5.53-20.56,13.69-5.55,1.28-10.32,4.65-13.36,9.52-4.9,7.84-3.82,17.68,1.58,24.65-1.67,5.44-1.13,11.27,1.57,16.34,4.34,8.16,13.4,12.15,22.14,10.96,3.88,4.17,9.19,6.61,14.93,6.81,9.24.32,17.22-5.53,20.56-13.69,5.55-1.28,10.32-4.65,13.36-9.52,4.9-7.84,3.82-17.68-1.58-24.65ZM82.11,32.43c1.93,3.03,2.74,6.52,2.4,9.96-.49-.34-1-.67-1.53-.97l-14.69-8.48c-.96-.55-2.15-.56-3.11,0l-19.99,11.43.03-7.84,15.46-8.93c7.31-4.22,16.89-2.28,21.43,4.83ZM62.83,59.15l-8.87,5.07-8.83-5.15.04-10.22,8.87-5.07,8.83,5.15-.04,10.22ZM34.48,35.02c0-8.44,6.47-15.77,14.9-16.14,3.59-.16,7.02.89,9.83,2.91-.54.26-1.08.53-1.6.83l-14.69,8.48c-.96.56-1.56,1.58-1.56,2.69l-.1,23.03-6.78-3.95v-17.85ZM21.27,40.44c1.66-3.19,4.28-5.63,7.43-7.06-.05.6-.08,1.2-.08,1.81v16.96c0,1.11.59,2.14,1.55,2.7l19.9,11.6-6.81,3.89-15.46-8.92c-7.31-4.22-10.42-13.49-6.53-20.98ZM25.89,75.57c-1.93-3.03-2.74-6.52-2.4-9.96.49.34,1,.67,1.53.97l14.69,8.48c.96.55,2.15.56,3.11,0l19.99-11.43-.03,7.84-15.46,8.93c-7.31,4.22-16.89,2.28-21.43-4.83ZM73.52,72.98c0,8.44-6.47,15.77-14.9,16.14-3.59.16-7.02-.89-9.83-2.91.54-.26,1.08-.53,1.6-.83l14.69-8.48c.96-.56,1.56-1.58,1.56-2.69l.1-23.03,6.78,3.95v17.85ZM86.73,67.56c-1.66,3.19-4.28,5.63-7.43,7.06.05-.6.08-1.2.08-1.81v-16.96c0-1.11-.59-2.14-1.55-2.7l-19.9-11.6,6.81-3.89,15.46,8.92c7.31,4.22,10.42,13.49,6.53,20.98Z" fill="#fff" stroke-width="0"/></svg>