<?xml version="1.0" encoding="utf-8"?>
<!-- Generator: Adobe Illustrator 28.2.0, SVG Export Plug-In . SVG Version: 6.00 Build 0)  -->
<svg version="1.1" xmlns="http://www.w3.org/2000/svg" xmlns:xlink="http://www.w3.org/1999/xlink" x="0px" y="0px"
	 viewBox="0 0 108 108" style="enable-background:new 0 0 108 108;" xml:space="preserve">
<style type="text/css">
	.st0{display:none;}
	.st1{display:inline;}
	.st2{fill:#FFFFFF;}
</style>
<g id="图层_2" class="st0">
	<rect class="st1" width="108" height="108"/>
</g>
<g id="图层_1">
	<path class="st2" d="M70.88,50.73c0.79-2.59,0.54-5.36-0.74-7.77c-2.07-3.88-6.37-5.78-10.53-5.21c-1.85-1.98-4.37-3.15-7.1-3.24
		c-4.4-0.15-8.19,2.63-9.78,6.51c-2.64,0.61-4.91,2.21-6.36,4.53c-2.33,3.73-1.82,8.41,0.75,11.72c-0.79,2.59-0.54,5.36,0.74,7.77
		c2.07,3.88,6.37,5.78,10.53,5.21c1.85,1.98,4.37,3.15,7.1,3.24c4.4,0.15,8.19-2.63,9.78-6.51c2.64-0.61,4.91-2.21,6.35-4.53
		C73.96,58.72,73.45,54.04,70.88,50.73z M67.37,43.74c0.92,1.44,1.3,3.1,1.14,4.74c-0.23-0.16-0.48-0.32-0.73-0.46l-6.99-4.03
		c-0.46-0.26-1.02-0.26-1.48,0l-9.51,5.43l0.02-3.73l7.35-4.25C60.65,39.44,65.21,40.36,67.37,43.74z M58.2,56.45l-4.22,2.41
		l-4.2-2.45l0.02-4.86l4.22-2.41l4.2,2.45L58.2,56.45z M44.71,44.97c0-4.02,3.08-7.5,7.09-7.68c1.71-0.08,3.34,0.42,4.67,1.38
		c-0.26,0.12-0.51,0.25-0.76,0.4l-6.99,4.03c-0.46,0.26-0.74,0.75-0.74,1.28l-0.05,10.95l-3.22-1.88V44.97z M38.43,47.55
		c0.79-1.52,2.03-2.68,3.53-3.36c-0.02,0.28-0.04,0.57-0.04,0.86v8.07c0,0.53,0.28,1.02,0.74,1.28l9.46,5.52l-3.24,1.85l-7.35-4.24
		C38.06,55.52,36.58,51.11,38.43,47.55z M40.63,64.26c-0.92-1.44-1.3-3.1-1.14-4.74c0.23,0.16,0.48,0.32,0.73,0.46l6.99,4.03
		c0.46,0.26,1.02,0.26,1.48,0l9.51-5.43l-0.02,3.73l-7.35,4.25C47.35,68.56,42.79,67.64,40.63,64.26z M63.29,63.03
		c0,4.02-3.08,7.5-7.09,7.68c-1.71,0.08-3.34-0.42-4.67-1.38c0.26-0.12,0.51-0.25,0.76-0.4l6.99-4.03c0.46-0.26,0.74-0.75,0.74-1.28
		l0.05-10.95l3.22,1.88V63.03z M69.57,60.45c-0.79,1.52-2.03,2.68-3.53,3.36c0.02-0.28,0.04-0.57,0.04-0.86v-8.07
		c0-0.53-0.28-1.02-0.74-1.28l-9.46-5.52l3.24-1.85l7.35,4.24C69.94,52.48,71.42,56.89,69.57,60.45z"/>
</g>
</svg>
