<?xml version="1.0" encoding="utf-8"?>
<!-- Generator: Adobe Illustrator 28.2.0, SVG Export Plug-In . SVG Version: 6.00 Build 0)  -->
<svg version="1.1" xmlns="http://www.w3.org/2000/svg" xmlns:xlink="http://www.w3.org/1999/xlink" x="0px" y="0px"
	 viewBox="0 0 108 108" style="enable-background:new 0 0 108 108;" xml:space="preserve">
<style type="text/css">
	.st0{display:none;}
	.st1{display:inline;}
	.st2{fill:#FFFFFF;}
</style>
<g id="图层_2" class="st0">
	<rect class="st1" width="108" height="108"/>
</g>
<g id="图层_1">
	<path class="st2" d="M70,40.88H38c-2.76,0-5,2.24-5,5v16.25c0,2.76,2.24,5,5,5h32c2.76,0,5-2.24,5-5V45.88
		C75,43.11,72.76,40.88,70,40.88z M50.4,49.87h-3.96v10.7h-2.79v-10.7h-3.87v-2.43H50.4V49.87z M65.47,60.56h-3.85l-2.07-9.34h-0.13
		l-2.12,9.34h-3.83l-2.79-13.13h3.1l1.21,6.59l0.58,3.48h0.14l2.07-10.06h3.44l2.12,10.1h0.12l0.54-3.48l1.17-6.63h3.1L65.47,60.56z
		"/>
</g>
</svg>
