<?xml version="1.0" encoding="utf-8"?>
<!-- Generator: Adobe Illustrator 28.2.0, SVG Export Plug-In . SVG Version: 6.00 Build 0)  -->
<svg version="1.1" xmlns="http://www.w3.org/2000/svg" xmlns:xlink="http://www.w3.org/1999/xlink" x="0px" y="0px"
	 viewBox="0 0 108 108" style="enable-background:new 0 0 108 108;" xml:space="preserve">
<style type="text/css">
	.st0{display:none;}
	.st1{display:inline;}
	.st2{fill:#FFFFFF;}
</style>
<g id="图层_2" class="st0">
	<rect class="st1" width="108" height="108"/>
</g>
<g id="图层_1">
	<path class="st2" d="M70,40.88H38c-2.76,0-5,2.24-5,5v16.25c0,2.76,2.24,5,5,5h32c2.76,0,5-2.24,5-5V45.88
		C75,43.11,72.76,40.88,70,40.88z M53.55,55.58c0,3.24-2.18,5.15-5.62,5.15c-3.55,0-5.58-2.02-5.58-5.15v-8.14h2.79v8.12
		c0,1.78,1.04,2.68,2.81,2.68c1.84,0,2.81-0.99,2.81-2.68v-8.12h2.79V55.58z M60.88,60.73c-3.55,0-5.42-1.73-5.42-4.29h2.84
		c0.04,1.3,0.81,2.14,2.68,2.14c1.44,0,2.38-0.52,2.38-1.57c0-1.26-0.68-1.53-3.06-1.93c-3.02-0.47-4.57-1.53-4.57-3.82
		c0-2.47,1.94-4,5.13-4c3.08,0,5.01,1.57,5.02,3.91h-2.83C63,49.9,62.01,49.4,60.77,49.4c-1.31,0-2.12,0.58-2.12,1.51
		c0,1.21,0.9,1.37,3.17,1.75c2.2,0.34,4.47,0.92,4.47,4.09C66.28,59.1,64.46,60.73,60.88,60.73z"/>
</g>
</svg>
